<mxfile host="65bd71144e">
    <diagram id="Ex2zYY905JpenKkv3tZu" name="ページ1">
        <mxGraphModel dx="1096" dy="697" grid="1" gridSize="10" guides="1" tooltips="1" connect="1" arrows="1" fold="1" page="1" pageScale="1" pageWidth="1169" pageHeight="827" math="0" shadow="0">
            <root>
                <mxCell id="0"/>
                <mxCell id="1" parent="0"/>
                <mxCell id="2" value="" style="rounded=0;whiteSpace=wrap;html=1;" vertex="1" parent="1">
                    <mxGeometry x="130" y="60" width="830" height="520" as="geometry"/>
                </mxCell>
                <mxCell id="7" value="" style="rounded=0;whiteSpace=wrap;html=1;" vertex="1" parent="1">
                    <mxGeometry x="160" y="130" width="770" height="170" as="geometry"/>
                </mxCell>
                <mxCell id="8" value="検索ボタン" style="rounded=0;whiteSpace=wrap;html=1;" vertex="1" parent="1">
                    <mxGeometry x="780" y="260" width="120" height="30" as="geometry"/>
                </mxCell>
                <mxCell id="11" value="テキストフィールド（searc by date）" style="rounded=0;whiteSpace=wrap;html=1;" vertex="1" parent="1">
                    <mxGeometry x="170" y="150" width="220" height="40" as="geometry"/>
                </mxCell>
                <mxCell id="12" value="テキストフィールド（searc by isCompleted）" style="rounded=0;whiteSpace=wrap;html=1;" vertex="1" parent="1">
                    <mxGeometry x="410" y="150" width="220" height="40" as="geometry"/>
                </mxCell>
                <mxCell id="13" value="テキストフィールド（searc by title）" style="rounded=0;whiteSpace=wrap;html=1;" vertex="1" parent="1">
                    <mxGeometry x="650" y="150" width="220" height="40" as="geometry"/>
                </mxCell>
                <mxCell id="14" value="テキストフィールド（search by content）" style="rounded=0;whiteSpace=wrap;html=1;" vertex="1" parent="1">
                    <mxGeometry x="170" y="220" width="220" height="40" as="geometry"/>
                </mxCell>
                <mxCell id="15" value="ここにテーブル形式で検索結果を表示" style="rounded=0;whiteSpace=wrap;html=1;" vertex="1" parent="1">
                    <mxGeometry x="160" y="320" width="770" height="220" as="geometry"/>
                </mxCell>
            </root>
        </mxGraphModel>
    </diagram>
</mxfile>
